<svg width="20" height="20" viewBox="0 0 20 20" fill="none" xmlns="http://www.w3.org/2000/svg">
<path d="M7.85901 14.691L7.04901 15.496C6.70968 15.83 6.25264 16.0172 5.77651 16.0172C5.30038 16.0172 4.84334 15.83 4.50401 15.496C4.33857 15.3322 4.20723 15.1372 4.1176 14.9223C4.02798 14.7074 3.98183 14.4768 3.98183 14.244C3.98183 14.0112 4.02798 13.7806 4.1176 13.5657C4.20723 13.3508 4.33857 13.1558 4.50401 12.992L7.48401 10.037C8.10101 9.424 9.26301 8.522 10.11 9.362C10.2012 9.45919 10.311 9.53702 10.4328 9.59085C10.5547 9.64468 10.6862 9.6734 10.8195 9.6753C10.9527 9.6772 11.0849 9.65224 11.2083 9.60191C11.3317 9.55158 11.4437 9.4769 11.5375 9.38235C11.6314 9.28779 11.7053 9.17529 11.7548 9.05156C11.8042 8.92783 11.8282 8.79541 11.8254 8.66219C11.8225 8.52897 11.7929 8.3977 11.7382 8.27619C11.6835 8.15469 11.6049 8.04545 11.507 7.955C10.069 6.527 7.94101 6.791 6.08801 8.63L3.10801 11.586C2.7559 11.9331 2.47656 12.347 2.28631 12.8034C2.09606 13.2598 1.99873 13.7495 2.00001 14.244C1.99878 14.7384 2.09614 15.2282 2.28638 15.6846C2.47663 16.1409 2.75595 16.5548 3.10801 16.902C3.81771 17.606 4.77741 18 5.77701 17.998C6.74401 17.998 7.71101 17.633 8.44601 16.902L9.25701 16.097C9.3495 16.0055 9.42301 15.8967 9.47334 15.7768C9.52367 15.6568 9.54981 15.5281 9.55027 15.398C9.55074 15.268 9.52551 15.1391 9.47605 15.0188C9.42658 14.8985 9.35384 14.7891 9.26201 14.697C9.07638 14.5109 8.82463 14.4058 8.56175 14.4046C8.29887 14.4035 8.04623 14.5065 7.85901 14.691ZM16.891 3.207C15.344 1.673 13.182 1.59 11.752 3.01L10.743 4.012C10.5566 4.19712 10.4513 4.44872 10.4504 4.71146C10.4494 4.9742 10.5529 5.22655 10.738 5.413C10.9231 5.59945 11.1747 5.70472 11.4375 5.70565C11.7002 5.70659 11.9526 5.60312 12.139 5.418L13.149 4.417C13.889 3.681 14.86 3.986 15.495 4.614C15.831 4.949 16.017 5.393 16.017 5.866C16.017 6.339 15.831 6.783 15.495 7.117L12.315 10.271C10.861 11.712 10.179 11.037 9.88801 10.748C9.79569 10.6563 9.68622 10.5838 9.56585 10.5344C9.44548 10.485 9.31657 10.4599 9.18648 10.4603C9.05638 10.4608 8.92765 10.4869 8.80764 10.5371C8.68762 10.5873 8.57867 10.6607 8.48701 10.753C8.39535 10.8453 8.32277 10.9548 8.27341 11.0752C8.22406 11.1955 8.19889 11.3244 8.19936 11.4545C8.19982 11.5846 8.2259 11.7134 8.27612 11.8334C8.32633 11.9534 8.39969 12.0623 8.49201 12.154C9.16001 12.816 9.92201 13.144 10.72 13.144C11.697 13.144 12.73 12.652 13.713 11.677L16.893 8.524C17.2444 8.17634 17.5231 7.76234 17.7132 7.30606C17.9032 6.84977 18.0007 6.36028 18 5.866C18.0009 5.37136 17.9033 4.8815 17.7129 4.42498C17.5225 3.96845 17.2431 3.55441 16.891 3.207Z" fill="#A1A1A1"/>
</svg>

