<svg width="20" height="20" viewBox="0 0 20 20" fill="none" xmlns="http://www.w3.org/2000/svg">
<path d="M18.8167 4.62222L15.5556 1.34444C15.3401 1.13004 15.0485 1.00967 14.7445 1.00967C14.4405 1.00967 14.1489 1.13004 13.9334 1.34444L2.37225 12.8889L1.3167 17.4444C1.28029 17.611 1.28153 17.7835 1.32035 17.9495C1.35917 18.1155 1.43458 18.2707 1.54107 18.4038C1.64756 18.537 1.78243 18.6446 1.93585 18.7189C2.08927 18.7932 2.25735 18.8323 2.42781 18.8333C2.50724 18.8414 2.58727 18.8414 2.6667 18.8333L7.27225 17.7778L18.8167 6.24445C19.0311 6.02895 19.1515 5.73732 19.1515 5.43333C19.1515 5.12934 19.0311 4.83772 18.8167 4.62222ZM6.7167 16.7778L2.40003 17.6833L3.38337 13.45L12.0334 4.83333L15.3667 8.16667L6.7167 16.7778ZM16.1111 7.36111L12.7778 4.02778L14.7111 2.10556L17.9889 5.43889L16.1111 7.36111Z" fill="#A1A1A1"/>
</svg>

