<svg width="28" height="28" viewBox="0 0 28 28" fill="none" xmlns="http://www.w3.org/2000/svg">
<path d="M24.3906 21.1093H22.2031V18.9218C22.2031 18.8015 22.1047 18.7031 21.9844 18.7031H20.6719C20.5516 18.7031 20.4531 18.8015 20.4531 18.9218V21.1093H18.2656C18.1453 21.1093 18.0469 21.2078 18.0469 21.3281V22.6406C18.0469 22.7609 18.1453 22.8593 18.2656 22.8593H20.4531V25.0468C20.4531 25.1672 20.5516 25.2656 20.6719 25.2656H21.9844C22.1047 25.2656 22.2031 25.1672 22.2031 25.0468V22.8593H24.3906C24.511 22.8593 24.6094 22.7609 24.6094 22.6406V21.3281C24.6094 21.2078 24.511 21.1093 24.3906 21.1093ZM10.2129 13.6281C10.1883 13.3902 10.1746 13.1496 10.1746 12.9062C10.1746 12.4715 10.2156 12.0476 10.2922 11.6347C10.3113 11.5363 10.2594 11.4351 10.1691 11.3941C9.79727 11.2273 9.45547 10.9976 9.16016 10.7078C8.81218 10.3704 8.53836 9.96415 8.35616 9.515C8.17396 9.06586 8.08738 8.58366 8.10195 8.09919C8.12656 7.22146 8.4793 6.38747 9.09453 5.75856C9.76993 5.06677 10.6777 4.68942 11.643 4.70036C12.5152 4.70856 13.3574 5.04489 13.9945 5.64099C14.2106 5.84333 14.3965 6.06755 14.5524 6.30817C14.607 6.39294 14.7137 6.42849 14.8067 6.39567C15.2879 6.22888 15.7965 6.1113 16.3188 6.05661C16.4719 6.04021 16.5594 5.87614 16.491 5.73942C15.6024 3.98122 13.7867 2.76716 11.6867 2.73435C8.65703 2.68786 6.13047 5.17341 6.13047 8.2031C6.13047 9.92028 6.9207 11.4515 8.15938 12.455C7.28984 12.857 6.48867 13.4121 5.79414 14.1066C4.2957 15.6023 3.44804 17.5765 3.39336 19.6847C3.39263 19.7139 3.39775 19.743 3.40841 19.7701C3.41908 19.7973 3.43507 19.8221 3.45546 19.843C3.47585 19.8639 3.50021 19.8805 3.52711 19.8918C3.55401 19.9031 3.58291 19.909 3.61211 19.909H5.14609C5.26367 19.909 5.36211 19.816 5.36484 19.6984C5.4168 18.1125 6.05937 16.6277 7.18867 15.5011C7.99258 14.6972 8.97696 14.1394 10.0516 13.8687C10.1555 13.8386 10.2266 13.7375 10.2129 13.6281ZM22.5313 12.9062C22.5313 9.91481 20.1278 7.48396 17.1473 7.43747C14.1176 7.39099 11.5938 9.87653 11.5938 12.9062C11.5938 14.6234 12.3867 16.1547 13.6227 17.1582C12.7441 17.5654 11.9444 18.1245 11.2602 18.8097C9.76172 20.3054 8.91407 22.2797 8.85938 24.3851C8.85865 24.4143 8.86377 24.4433 8.87443 24.4705C8.8851 24.4977 8.9011 24.5225 8.92148 24.5434C8.94187 24.5643 8.96623 24.5809 8.99313 24.5922C9.02004 24.6035 9.04894 24.6094 9.07813 24.6093H10.6094C10.727 24.6093 10.8254 24.5164 10.8281 24.3988C10.8801 22.8129 11.5227 21.3281 12.652 20.2015C13.8305 19.023 15.3945 18.375 17.0625 18.375C20.0813 18.375 22.5313 15.9277 22.5313 12.9062ZM19.5371 15.3808C18.8754 16.0426 17.9977 16.4062 17.0625 16.4062C16.1274 16.4062 15.2496 16.0426 14.5879 15.3808C14.2577 15.0523 13.9968 14.6609 13.8207 14.2297C13.6445 13.7986 13.5567 13.3364 13.5625 12.8707C13.5707 11.9738 13.9289 11.107 14.5551 10.4644C15.2113 9.79177 16.0891 9.41716 17.027 9.40622C17.9539 9.39802 18.8535 9.75896 19.5153 10.407C20.1934 11.0715 20.5653 11.9601 20.5653 12.9062C20.5625 13.8414 20.1988 14.7191 19.5371 15.3808Z" fill="#EEEEEE"/>
</svg>

