<svg width="20" height="20" viewBox="0 0 20 20" fill="none" xmlns="http://www.w3.org/2000/svg">
<path d="M10.2 3.28C13.73 3.28 16.63 5.89 17.12 9.28H19.2L15.7 13.28L12.2 9.28H14.52C14.2963 8.30111 13.7473 7.42698 12.9626 6.80037C12.178 6.17376 11.2041 5.83168 10.2 5.83C8.74999 5.83 7.46999 6.54 6.65999 7.61L4.94999 5.66C5.6045 4.91156 6.41167 4.31192 7.31722 3.9014C8.22278 3.49088 9.20573 3.279 10.2 3.28ZM9.79999 16.72C6.27999 16.72 3.36999 14.11 2.87999 10.72H0.799988L4.29999 6.72C5.46999 8.05 6.62999 9.39 7.79999 10.72H5.47999C5.7037 11.6989 6.2527 12.573 7.03733 13.1996C7.82196 13.8262 8.79586 14.1683 9.79999 14.17C11.25 14.17 12.53 13.46 13.34 12.39L15.05 14.34C14.3961 15.0892 13.5891 15.6894 12.6834 16.0999C11.7777 16.5105 10.7944 16.722 9.79999 16.72Z" fill="#A1A1A1"/>
</svg>

